<?xml version="1.0" encoding="UTF-8"?>
<!DOCTYPE svg PUBLIC "-//W3C//DTD SVG 1.1//EN" "http://www.w3.org/Graphics/SVG/1.1/DTD/svg11.dtd">
<svg xmlns="http://www.w3.org/2000/svg" version="1.1" width="1920px" height="80px" style="shape-rendering:geometricPrecision; text-rendering:geometricPrecision; image-rendering:optimizeQuality; fill-rule:evenodd; clip-rule:evenodd" xmlns:xlink="http://www.w3.org/1999/xlink">
<g><path style="opacity:1" fill="#00174A" d="M -0.5,-0.5 C 639.5,-0.5 1279.5,-0.5 1919.5,-0.5C 1919.5,359.5 1919.5,719.5 1919.5,1079.5C 1279.5,1079.5 639.5,1079.5 -0.5,1079.5C -0.5,719.5 -0.5,359.5 -0.5,-0.5 Z"/></g>
<g><path style="opacity:1" fill="#216571" d="M 755.5,39.5 C 578.333,39.167 401.333,39.5003 224.5,40.5C 187.832,40.6667 151.165,40.5 114.5,40C 116.167,39.6667 117.833,39.3333 119.5,39C 331.667,38.1671 543.667,38.3337 755.5,39.5 Z"/></g>
<g><path style="opacity:1" fill="#34c1ca" d="M 224.5,40.5 C 401.333,39.5003 578.333,39.167 755.5,39.5C 760.726,40.2235 765.726,41.7235 770.5,44C 777.833,49.3333 785.167,54.6667 792.5,60C 794.65,61.4114 796.984,62.2447 799.5,62.5C 799.158,63.3382 798.492,63.6716 797.5,63.5C 795.692,63.5086 794.025,63.0086 792.5,62C 783.99,56.2451 775.657,50.2451 767.5,44C 763.833,43 760.167,42 756.5,41C 579.167,40.5 401.834,40.3333 224.5,40.5 Z"/></g>
<g><path style="opacity:1" fill="#34c4cd" d="M 1164.5,39.5 C 1341,39.167 1517.33,39.5003 1693.5,40.5C 1516.83,40.3333 1340.17,40.5 1163.5,41C 1161.12,41.5112 1158.79,42.1779 1156.5,43C 1146.12,51.8529 1134.79,59.1863 1122.5,65C 1016.5,65.5 910.501,65.6667 804.5,65.5C 909.833,64.8333 1015.17,64.1667 1120.5,63.5C 1122.8,62.9396 1125.13,62.4396 1127.5,62C 1137.17,55 1146.83,48 1156.5,41C 1159.12,40.1785 1161.78,39.6785 1164.5,39.5 Z"/></g>
<g><path style="opacity:1" fill="#27848e" d="M 1164.5,39.5 C 1356.67,38.5003 1549,38.167 1741.5,38.5C 1748.5,39.1667 1755.5,39.8333 1762.5,40.5C 1739.5,40.5 1716.5,40.5 1693.5,40.5C 1517.33,39.5003 1341,39.167 1164.5,39.5 Z"/></g>
<g><path style="opacity:1" fill="#1e5d68" d="M 1741.5,38.5 C 1753.17,38.5 1764.83,38.5 1776.5,38.5C 1784.5,39.1667 1792.5,39.8333 1800.5,40.5C 1787.83,40.5 1775.17,40.5 1762.5,40.5C 1755.5,39.8333 1748.5,39.1667 1741.5,38.5 Z"/></g>
<g><path style="opacity:1" fill="#163643" d="M 1776.5,38.5 C 1808.85,38.1034 1841.19,38.6034 1873.5,40C 1849.17,40.5 1824.84,40.6666 1800.5,40.5C 1792.5,39.8333 1784.5,39.1667 1776.5,38.5 Z"/></g>
<g><path style="opacity:1" fill="#2b96a0" d="M 799.5,62.5 C 906.43,63.4977 1013.43,63.831 1120.5,63.5C 1015.17,64.1667 909.833,64.8333 804.5,65.5C 801.933,65.2785 799.599,64.6118 797.5,63.5C 798.492,63.6716 799.158,63.3382 799.5,62.5 Z"/></g>
</svg>
